<svg id="Layer_1" data-name="Layer 1"
  xmlns="http://www.w3.org/2000/svg" viewBox="0 0 157 157">
  <rect width="157" height="157" />
  <path d="M108.76,53.28c16.59.54,29.65,7.46,38.83,21.53C149.2,77.27,149,78.31,146,79c-4.13,1-8.17,2.27-12.23,3.49a3.82,3.82,0,0,1-4.55-1.26c-8.34-9.27-18.82-10.91-30.08-7-10.69,3.68-15.8,12.33-17,23.08-1.25,11.22,1.84,21.11,11.43,28C104.25,133,121,131,129.31,121c1.38-1.64,2.49-2,4.42-1.33,4.11,1.47,8.23,3,12.44,4.05,3.19.82,2.9,2.08,1.43,4.35-7.33,11.32-17.61,18.22-30.83,20.56C92.21,153,68.69,137.4,62.61,112.89s7.58-49.43,31-57.17A41.93,41.93,0,0,1,108.76,53.28Z" transform="translate(-26.42 -22.82)" />
</svg>
